<?xml version="1.0" encoding="UTF-8" standalone="no"?><!DOCTYPE svg PUBLIC "-//W3C//DTD SVG 1.1//EN" "http://www.w3.org/Graphics/SVG/1.1/DTD/svg11.dtd"><svg width="100%" height="100%" viewBox="0 0 19 23" version="1.1" xmlns="http://www.w3.org/2000/svg" xmlns:xlink="http://www.w3.org/1999/xlink" xml:space="preserve" xmlns:serif="http://www.serif.com/" style="fill-rule:evenodd;clip-rule:evenodd;stroke-linejoin:round;stroke-miterlimit:2;"><g id="Layer-1" serif:id="Layer 1"></g><ellipse cx="9.98" cy="15.645" rx="1.312" ry="0.644" style="fill:#fac94c;"/><path d="M8.668,16.667l0,-1.003c0.021,0.346 0.601,0.624 1.312,0.624c0.724,0 1.312,-0.288 1.312,-0.643c0,-0.002 0.001,-0.007 0.001,-0.007l-0,1.029" style="fill:#f29f2e;"/><path d="M12.763,9.503l-11.776,5.281l-0.027,4.215l5.619,3.187l11.774,-5.326l-0.036,-4.219l-5.554,-3.138Z" style="fill:#fff;"/><path d="M18.333,16.85l-11.652,5.299l-0.02,-4.168l11.679,-5.278l-0.007,4.147Z" style="fill:#f29f2e;"/><path d="M6.417,22.098l-5.458,-3.044l0.018,-4.048l5.413,2.964l0.027,4.128Z" style="fill:#ec713a;"/><path d="M10.692,15.057l0,0.001c-0.001,0.341 -0.567,0.616 -1.262,0.613c-0.696,-0.003 -1.259,-0.283 -1.257,-0.624" style="fill:#f29f2e;"/><path d="M9.439,13.458c0.695,0.003 1.259,0.282 1.257,0.623c-0.001,0.342 -0.567,0.616 -1.262,0.613c-0.696,-0.002 -1.26,-0.282 -1.258,-0.623c0.001,-0.341 0.567,-0.616 1.263,-0.613Z" style="fill:#fac94c;"/><path d="M8.172,15.053l0.004,-0.963c0.019,0.333 0.575,0.602 1.258,0.604c0.695,0.003 1.261,-0.271 1.262,-0.613c0,-0.002 0.001,-0.006 0.001,-0.006l-0.004,0.989" style="fill:#f29f2e;"/><path d="M13.766,13.696l0,0.001c-0.001,0.341 -0.567,0.616 -1.263,0.613c-0.695,-0.003 -1.258,-0.283 -1.256,-0.624" style="fill:#f29f2e;"/><path d="M12.512,12.097c0.696,0.003 1.259,0.282 1.258,0.624c-0.001,0.341 -0.567,0.615 -1.263,0.612c-0.695,-0.002 -1.259,-0.282 -1.257,-0.623c0.001,-0.341 0.567,-0.615 1.262,-0.613Z" style="fill:#fac94c;"/><path d="M11.246,13.692l0.004,-0.963c0.019,0.333 0.575,0.602 1.257,0.604c0.696,0.003 1.262,-0.271 1.263,-0.612c0,-0.003 0.001,-0.007 0.001,-0.007l-0.004,0.989" style="fill:#f29f2e;"/><path d="M16.84,12.335l-0,0.001c-0.002,0.341 -0.567,0.616 -1.263,0.613c-0.695,-0.003 -1.258,-0.283 -1.257,-0.624" style="fill:#f29f2e;"/><path d="M15.586,10.736c0.696,0.003 1.259,0.282 1.258,0.624c-0.002,0.341 -0.567,0.615 -1.263,0.612c-0.695,-0.002 -1.259,-0.282 -1.258,-0.623c0.002,-0.341 0.568,-0.615 1.263,-0.613Z" style="fill:#fac94c;"/><path d="M14.32,12.331l0.004,-0.963c0.019,0.333 0.574,0.602 1.257,0.604c0.696,0.003 1.261,-0.271 1.263,-0.612c-0,-0.002 0,-0.007 0,-0.007l-0.004,0.989" style="fill:#f29f2e;"/><path d="M14.211,10.986l-0,0.001c-0.002,0.341 -0.568,0.616 -1.263,0.613c-0.696,-0.003 -1.258,-0.283 -1.257,-0.624" style="fill:#f29f2e;"/><path d="M12.957,9.387c0.695,0.003 1.259,0.282 1.258,0.623c-0.002,0.341 -0.568,0.616 -1.263,0.613c-0.696,-0.003 -1.259,-0.282 -1.258,-0.623c0.002,-0.341 0.567,-0.616 1.263,-0.613Z" style="fill:#fac94c;"/><path d="M11.691,10.982l0.004,-0.963c0.019,0.332 0.574,0.602 1.257,0.604c0.695,0.003 1.261,-0.272 1.263,-0.613c-0,-0.002 0,-0.006 0,-0.006l-0.004,0.988" style="fill:#f29f2e;"/><path d="M11.112,12.336l-0,0c-0.002,0.342 -0.568,0.616 -1.263,0.613c-0.696,-0.002 -1.258,-0.283 -1.257,-0.624" style="fill:#f29f2e;"/><path d="M9.858,10.737c0.695,0.003 1.259,0.282 1.258,0.623c-0.002,0.341 -0.568,0.616 -1.263,0.613c-0.696,-0.003 -1.259,-0.282 -1.258,-0.623c0.002,-0.341 0.567,-0.616 1.263,-0.613Z" style="fill:#fac94c;"/><path d="M8.592,12.331l0.004,-0.962c0.019,0.332 0.574,0.601 1.257,0.604c0.695,0.003 1.261,-0.272 1.263,-0.613c-0,-0.002 0,-0.006 0,-0.006l-0.004,0.988" style="fill:#f29f2e;"/><path d="M8.013,13.685l-0,0.001c-0.002,0.341 -0.568,0.616 -1.263,0.613c-0.696,-0.003 -1.258,-0.283 -1.257,-0.624" style="fill:#f29f2e;"/><path d="M6.759,12.086c0.695,0.003 1.259,0.282 1.258,0.623c-0.002,0.342 -0.568,0.616 -1.263,0.613c-0.696,-0.002 -1.259,-0.282 -1.258,-0.623c0.002,-0.341 0.567,-0.616 1.263,-0.613Z" style="fill:#fac94c;"/><path d="M5.493,13.681l0.004,-0.963c0.019,0.333 0.574,0.602 1.257,0.604c0.695,0.003 1.261,-0.271 1.263,-0.613c-0,-0.002 0,-0.006 0,-0.006l-0.004,0.989" style="fill:#f29f2e;"/><path d="M9.732,6.702l-5.562,2.559l-0.028,4.078l5.435,3.086l5.559,-2.604l-0.033,-4.082l-5.371,-3.037Z" style="fill:#fff;"/><path d="M15.165,13.855l-5.49,2.533l-0.017,-4.032l5.516,-2.513l-0.009,4.012Z" style="fill:#f29f2e;"/><path d="M14.983,9.63l-5.461,2.51l-5.28,-2.891l5.465,-2.515l5.276,2.896Z" style="fill:#fac94c;"/><path d="M9.421,16.339l-5.28,-2.947l0.019,-3.916l5.236,2.869l0.025,3.994Z" style="fill:#ec713a;"/><path d="M10.585,10.845l-0,0c-0.002,0.33 -0.549,0.596 -1.222,0.593c-0.673,-0.003 -1.217,-0.275 -1.215,-0.605" style="fill:#f29f2e;"/><path d="M9.373,9.297c0.673,0.003 1.218,0.273 1.216,0.603c-0.001,0.33 -0.549,0.596 -1.222,0.593c-0.673,-0.003 -1.218,-0.273 -1.216,-0.603c0.001,-0.33 0.549,-0.596 1.222,-0.593Z" style="fill:#fac94c;"/><path d="M8.147,10.839l0.004,-0.931c0.019,0.321 0.556,0.582 1.216,0.585c0.673,0.003 1.221,-0.263 1.222,-0.593c0,-0.002 0.001,-0.006 0.001,-0.006l-0.004,0.957" style="fill:#f29f2e;"/><path d="M13.559,9.529l0,0.001c-0.001,0.33 -0.549,0.595 -1.222,0.592c-0.673,-0.003 -1.217,-0.274 -1.215,-0.604" style="fill:#f29f2e;"/><path d="M12.347,7.982c0.673,0.003 1.218,0.273 1.216,0.603c-0.001,0.33 -0.549,0.595 -1.221,0.592c-0.673,-0.003 -1.218,-0.273 -1.217,-0.603c0.002,-0.33 0.549,-0.595 1.222,-0.592Z" style="fill:#fac94c;"/><path d="M11.121,9.524l0.005,-0.932c0.018,0.322 0.555,0.583 1.216,0.585c0.672,0.003 1.22,-0.262 1.221,-0.592c0,-0.002 0.001,-0.006 0.001,-0.006l-0.004,0.956" style="fill:#f29f2e;"/><path d="M10.967,8.201l0,0c-0.001,0.33 -0.549,0.596 -1.222,0.593c-0.672,-0.003 -1.216,-0.274 -1.215,-0.604" style="fill:#f29f2e;"/><path d="M9.755,6.653c0.673,0.003 1.218,0.274 1.216,0.604c-0.001,0.33 -0.548,0.595 -1.221,0.592c-0.673,-0.003 -1.218,-0.273 -1.217,-0.603c0.002,-0.33 0.549,-0.596 1.222,-0.593Z" style="fill:#fac94c;"/><path d="M8.53,8.195l0.004,-0.931c0.018,0.322 0.555,0.582 1.216,0.585c0.673,0.003 1.22,-0.262 1.221,-0.592c0,-0.002 0.001,-0.006 0.001,-0.006l-0.004,0.956" style="fill:#f29f2e;"/><path d="M7.969,9.505l-0,0.001c-0.002,0.33 -0.549,0.595 -1.222,0.592c-0.673,-0.003 -1.217,-0.274 -1.216,-0.604" style="fill:#f29f2e;"/><path d="M6.756,7.958c0.673,0.003 1.218,0.273 1.217,0.603c-0.002,0.33 -0.549,0.596 -1.222,0.593c-0.673,-0.003 -1.218,-0.274 -1.216,-0.604c0.001,-0.33 0.549,-0.595 1.221,-0.592Z" style="fill:#fac94c;"/><path d="M5.531,9.5l0.004,-0.932c0.018,0.322 0.556,0.583 1.216,0.586c0.673,0.003 1.22,-0.263 1.222,-0.593c-0,-0.002 0,-0.006 0,-0.006l-0.004,0.956" style="fill:#f29f2e;"/><path d="M7.618,16.418l0,0.001c-0.001,0.341 -0.567,0.616 -1.262,0.613c-0.696,-0.003 -1.258,-0.283 -1.257,-0.624" style="fill:#f29f2e;"/><path d="M6.365,14.819c0.695,0.003 1.259,0.282 1.257,0.623c-0.001,0.341 -0.567,0.616 -1.262,0.613c-0.696,-0.003 -1.259,-0.282 -1.258,-0.623c0.001,-0.341 0.567,-0.616 1.263,-0.613Z" style="fill:#fac94c;"/><path d="M5.099,16.414l0.004,-0.963c0.019,0.332 0.574,0.601 1.257,0.604c0.695,0.003 1.261,-0.272 1.262,-0.613c0,-0.002 0.001,-0.006 0.001,-0.006l-0.004,0.988" style="fill:#f29f2e;"/><path d="M4.914,15.035l-0,0.001c-0.002,0.341 -0.568,0.615 -1.263,0.612c-0.696,-0.002 -1.258,-0.283 -1.257,-0.624" style="fill:#f29f2e;"/><path d="M3.66,13.436c0.695,0.003 1.259,0.282 1.258,0.623c-0.002,0.341 -0.568,0.616 -1.263,0.613c-0.696,-0.003 -1.259,-0.282 -1.258,-0.623c0.002,-0.341 0.567,-0.616 1.263,-0.613Z" style="fill:#fac94c;"/><path d="M2.394,15.03l0.004,-0.962c0.019,0.332 0.574,0.601 1.257,0.604c0.695,0.003 1.261,-0.272 1.263,-0.613c-0,-0.002 0,-0.006 0,-0.006l-0.004,0.988" style="fill:#f29f2e;"/><path d="M12.501,0.394l-12.242,5.55l-0.01,4.389l5.865,3.296l12.239,-5.597l-0.055,-4.394l-5.797,-3.244Z" style="fill:#fff;"/><path d="M18.332,8.021l-12.113,5.568l-0.038,-4.34l12.141,-5.546l0.01,4.318Z" style="fill:#f29f2e;"/><path d="M5.945,13.538l-5.697,-3.147l0.001,-4.216l5.65,3.063l0.046,4.3Z" style="fill:#ec713a;"/><path d="M7.172,7.617l-0,0.001c-0,0.355 -0.588,0.644 -1.313,0.644c-0.724,-0 -1.311,-0.29 -1.311,-0.645" style="fill:#f29f2e;"/><ellipse cx="5.859" cy="6.601" rx="1.312" ry="0.644" style="fill:#fac94c;"/><path d="M4.548,7.623l-0,-1.002c0.021,0.346 0.601,0.624 1.311,0.624c0.725,-0 1.313,-0.289 1.313,-0.644c-0,-0.002 0,-0.006 0,-0.006l0.001,1.029" style="fill:#f29f2e;"/><path d="M10.367,6.187l0,0.001c0,0.355 -0.588,0.643 -1.312,0.643c-0.724,0 -1.311,-0.289 -1.311,-0.644" style="fill:#f29f2e;"/><ellipse cx="9.055" cy="5.171" rx="1.312" ry="0.644" style="fill:#fac94c;"/><path d="M7.743,6.193l0,-1.003c0.021,0.346 0.601,0.624 1.312,0.624c0.724,0 1.312,-0.288 1.312,-0.643c0,-0.003 0.001,-0.007 0.001,-0.007l0,1.029" style="fill:#f29f2e;"/><path d="M13.563,4.757l-0,0c-0,0.356 -0.588,0.644 -1.313,0.644c-0.724,-0 -1.311,-0.289 -1.311,-0.645" style="fill:#f29f2e;"/><ellipse cx="12.25" cy="3.74" rx="1.312" ry="0.644" style="fill:#fac94c;"/><path d="M10.939,4.762l-0,-1.002c0.021,0.346 0.6,0.624 1.311,0.624c0.725,-0 1.313,-0.288 1.313,-0.644c-0,-0.002 0,-0.006 0,-0.006l0,1.029" style="fill:#f29f2e;"/><path d="M16.758,3.326l0,0.001c0,0.355 -0.588,0.644 -1.312,0.644c-0.725,-0 -1.312,-0.29 -1.312,-0.645" style="fill:#f29f2e;"/><ellipse cx="15.446" cy="2.31" rx="1.312" ry="0.644" style="fill:#fac94c;"/><path d="M14.134,3.332l-0,-1.002c0.021,0.346 0.601,0.624 1.312,0.624c0.724,-0 1.312,-0.289 1.312,-0.644c0,-0.002 0.001,-0.006 0.001,-0.006l-0,1.029" style="fill:#f29f2e;"/><path d="M14.014,1.932l0,0.001c0,0.355 -0.588,0.644 -1.312,0.644c-0.724,-0 -1.311,-0.29 -1.311,-0.645" style="fill:#f29f2e;"/><ellipse cx="12.702" cy="0.916" rx="1.312" ry="0.644" style="fill:#fac94c;"/><path d="M11.39,1.938l0,-1.002c0.021,0.346 0.601,0.624 1.312,0.624c0.724,-0 1.312,-0.289 1.312,-0.644c0,-0.002 0.001,-0.006 0.001,-0.006l0,1.029" style="fill:#f29f2e;"/><path d="M10.793,3.351l-0,0.001c-0,0.355 -0.589,0.643 -1.313,0.643c-0.724,0 -1.311,-0.289 -1.311,-0.644" style="fill:#f29f2e;"/><ellipse cx="9.48" cy="2.335" rx="1.312" ry="0.644" style="fill:#fac94c;"/><path d="M8.168,3.357l0,-1.003c0.022,0.346 0.601,0.624 1.312,0.624c0.724,0 1.313,-0.288 1.313,-0.643c-0,-0.003 0,-0.007 0,-0.007l0,1.029" style="fill:#f29f2e;"/><path d="M7.571,4.769l-0,0.001c-0,0.355 -0.588,0.644 -1.313,0.644c-0.724,-0 -1.311,-0.29 -1.311,-0.645" style="fill:#f29f2e;"/><ellipse cx="6.258" cy="3.753" rx="1.312" ry="0.644" style="fill:#fac94c;"/><path d="M4.947,4.775l-0,-1.002c0.021,0.346 0.6,0.624 1.311,0.624c0.725,-0 1.313,-0.289 1.313,-0.644c-0,-0.002 0,-0.006 0,-0.006l0.001,1.029" style="fill:#f29f2e;"/><path d="M4.349,6.188l0,0.001c0,0.355 -0.588,0.643 -1.312,0.643c-0.725,0 -1.312,-0.289 -1.312,-0.644" style="fill:#f29f2e;"/><ellipse cx="3.037" cy="5.172" rx="1.312" ry="0.644" style="fill:#fac94c;"/><path d="M1.725,6.194l-0,-1.003c0.021,0.347 0.601,0.624 1.312,0.624c0.724,0 1.312,-0.288 1.312,-0.643c0,-0.002 0.001,-0.007 0.001,-0.007l-0,1.03" style="fill:#f29f2e;"/></svg>